<?xml version="1.0" standalone="no"?>
<!DOCTYPE svg PUBLIC "-//W3C//DTD SVG 20010904//EN"
 "http://www.w3.org/TR/2001/REC-SVG-20010904/DTD/svg10.dtd">
<svg version="1.0" xmlns="http://www.w3.org/2000/svg"
 width="512.000000pt" height="512.000000pt" viewBox="0 0 512.000000 512.000000"
 preserveAspectRatio="xMidYMid meet">

<g transform="translate(0.000000,512.000000) scale(0.100000,-0.100000)"
fill="#000000" stroke="none">
<path d="M2380 4954 c-241 -27 -382 -56 -555 -111 -507 -163 -948 -491 -1244
-927 -208 -306 -338 -640 -397 -1018 -25 -158 -25 -518 0 -676 74 -473 259
-879 561 -1230 382 -445 916 -731 1515 -814 123 -17 478 -16 600 1 605 83
1134 368 1517 815 301 351 485 757 559 1228 25 157 25 518 1 675 -82 521 -313
985 -671 1347 -369 374 -830 607 -1363 691 -93 15 -448 28 -523 19z m306 -822
c66 -34 101 -69 133 -134 78 -154 8 -338 -152 -404 l-47 -19 0 -63 c0 -107
-47 -155 -100 -102 -16 16 -20 33 -20 94 0 72 -1 74 -27 81 -47 11 -122 66
-152 109 -43 64 -56 106 -55 176 2 134 82 238 214 281 44 15 162 4 206 -19z
m-971 -191 c38 -17 90 -54 124 -86 135 -129 167 -314 81 -479 l-30 -59 50 -53
c54 -57 61 -83 30 -114 -31 -31 -57 -24 -115 31 l-54 51 -43 -25 c-209 -122
-468 -38 -579 188 -32 65 -34 76 -34 170 0 97 2 104 38 177 54 109 141 184
262 225 68 22 192 11 270 -26z m1950 24 c161 -42 274 -166 305 -334 31 -171
-68 -361 -226 -436 -122 -58 -247 -56 -373 6 l-63 31 -52 -51 c-56 -55 -69
-60 -104 -35 -36 25 -28 59 27 117 l50 52 -36 73 c-30 59 -37 86 -41 151 -7
127 27 220 117 314 102 107 251 149 396 112z m-939 -681 c87 -18 208 -75 290
-138 125 -94 224 -249 265 -416 38 -148 16 -340 -56 -495 -68 -147 -183 -264
-330 -335 -117 -56 -199 -74 -335 -74 -143 0 -224 19 -350 81 -173 86 -297
237 -362 443 -20 64 -23 96 -23 220 0 133 3 152 28 225 79 225 251 397 470
470 129 43 260 49 403 19z m-1346 -457 c62 -29 126 -98 147 -158 l18 -49 72 0
c78 0 113 -18 113 -58 0 -43 -24 -57 -108 -60 l-79 -4 -14 -40 c-18 -56 -94
-136 -154 -164 -37 -18 -68 -24 -121 -24 -158 0 -279 111 -292 265 -18 230
210 389 418 292z m2617 -3 c102 -49 158 -143 158 -264 0 -123 -58 -214 -169
-266 -146 -68 -341 9 -393 156 l-17 48 -79 4 c-85 4 -107 17 -107 64 0 37 36
54 116 54 70 0 72 0 77 28 9 43 67 123 114 156 87 60 201 68 300 20z m-2025
-851 c29 -26 21 -54 -33 -109 l-51 -52 38 -78 c38 -75 39 -82 39 -179 0 -92
-3 -105 -32 -166 -89 -182 -296 -284 -478 -234 -230 62 -363 293 -296 513 75
249 348 372 573 259 l73 -36 50 49 c53 54 85 62 117 33z m1290 -31 l51 -49 68
35 c58 30 81 36 152 40 185 10 329 -78 411 -248 28 -59 31 -74 31 -160 0 -86
-3 -101 -32 -163 -82 -174 -272 -281 -442 -250 -204 38 -350 211 -351 414 0
63 29 168 59 214 l20 29 -49 52 c-53 56 -61 85 -33 116 27 31 60 22 115 -30z
m-667 -226 c16 -12 20 -29 23 -93 l4 -79 47 -17 c102 -36 181 -155 181 -271 0
-83 -26 -143 -89 -207 -91 -90 -208 -112 -323 -61 -166 74 -226 278 -125 429
34 51 113 111 159 120 28 5 28 7 28 77 0 80 17 116 54 116 12 0 31 -6 41 -14z"/>
<path d="M2516 3108 c-9 -13 -16 -43 -16 -69 0 -44 -2 -47 -39 -64 -91 -41
-145 -125 -145 -225 0 -134 89 -228 235 -246 64 -8 93 -24 119 -67 81 -133
-102 -268 -207 -153 -20 21 -33 46 -33 62 0 72 -57 107 -101 63 -18 -18 -20
-29 -15 -65 11 -86 74 -167 153 -200 31 -13 33 -17 33 -62 0 -55 21 -92 54
-92 43 0 59 23 64 88 4 52 7 61 26 66 45 11 103 64 130 117 44 90 32 195 -32
269 -43 51 -95 78 -171 88 -101 14 -148 65 -138 150 13 120 174 153 237 49 11
-18 20 -43 20 -57 0 -31 8 -44 38 -59 19 -10 28 -10 48 4 24 16 28 27 24 80
-5 73 -67 157 -141 190 -37 17 -39 20 -39 64 0 59 -21 91 -60 91 -18 0 -34 -8
-44 -22z"/>
</g>
</svg>
